<svg id="Capa_1" enable-background="new 0 0 512 512" height="512" viewBox="0 0 512 512" width="512" xmlns="http://www.w3.org/2000/svg"><g><path d="m453.785 264.618v-55.585c0-109.257-88.888-198.144-198.145-198.144s-198.144 88.887-198.144 198.143v55.585h.359 29.641v-55.585c0-92.715 75.43-168.144 168.145-168.144s168.145 75.429 168.145 168.144v55.585h29.359.64z"/><path d="m87.496 501.112h13.442c23.931 0 43.399-19.469 43.399-43.399v-151.112c0-23.149-18.833-41.983-41.982-41.983h-14.859z"/><path d="m0 362.985v38.876c0 34.807 24.676 63.962 57.496 71.016v-180.908c-32.82 7.054-57.496 36.209-57.496 71.016z"/><path d="m423.785 264.618h-14.141c-23.149 0-41.982 18.833-41.982 41.983v151.111c0 23.931 19.469 43.399 43.398 43.399h12.725z"/><path d="m453.785 292.035v180.777c32.692-7.159 58.215-36.243 58.215-70.95v-38.876c0-34.708-25.523-63.792-58.215-70.951z"/><path d="m259.386 166.112v167.597c-5.223-2.018-10.891-3.136-16.817-3.136-25.814 0-46.816 21.002-46.816 46.817s21.002 46.817 46.816 46.817c25.815 0 46.817-21.002 46.817-46.817v-133.483h26.285c13.451 0 26.083-5.251 35.569-14.788s14.673-22.195 14.603-35.646l-.193-27.362h-106.264z"/></g></svg>